<?xml version="1.0" standalone="no"?>
<!DOCTYPE svg PUBLIC "-//W3C//DTD SVG 20010904//EN"
 "http://www.w3.org/TR/2001/REC-SVG-20010904/DTD/svg10.dtd">
<svg version="1.0" xmlns="http://www.w3.org/2000/svg"
 width="800.000000pt" height="800.000000pt" viewBox="0 0 800.000000 800.000000"
 preserveAspectRatio="xMidYMid meet">
<metadata>
Created by potrace 1.11, written by Peter Selinger 2001-2013
</metadata>
<g transform="translate(0.000000,800.000000) scale(0.100000,-0.100000)"
fill="#000000" stroke="none">
<path d="M3748 7995 c-1 -1 -47 -6 -102 -10 -54 -4 -108 -8 -120 -10 -11 -2
-43 -6 -71 -10 -98 -13 -119 -15 -149 -20 -40 -7 -114 -22 -196 -42 -36 -8
-76 -17 -90 -20 -85 -15 -375 -108 -530 -170 -317 -127 -651 -316 -915 -517
-79 -60 -96 -73 -138 -110 -12 -10 -56 -47 -97 -82 -90 -76 -315 -303 -391
-394 -29 -36 -56 -67 -60 -70 -18 -16 -176 -231 -236 -320 -275 -413 -490
-919 -582 -1370 -6 -30 -14 -66 -16 -80 -16 -75 -24 -121 -30 -170 -4 -30 -11
-77 -15 -105 -12 -67 -11 -913 1 -995 5 -36 11 -81 14 -100 32 -237 112 -541
208 -800 474 -1277 1590 -2236 2926 -2515 81 -17 232 -43 296 -50 22 -3 56 -7
75 -10 158 -20 580 -27 771 -13 384 30 846 139 1174 277 174 73 389 177 480
232 17 10 44 26 60 35 94 52 408 269 462 318 6 6 54 47 107 91 89 75 312 294
401 395 404 458 708 1029 863 1621 30 112 65 276 77 354 3 22 7 47 10 55 4 16
11 65 20 165 3 33 10 101 15 150 8 90 5 603 -4 660 -3 17 -10 71 -16 120 -34
294 -112 618 -215 896 -159 427 -387 821 -679 1176 -95 114 -357 382 -465 473
-449 384 -941 650 -1506 815 -49 15 -97 28 -105 30 -8 2 -53 12 -100 23 -102
24 -367 69 -465 78 -38 3 -81 8 -95 10 -31 6 -567 14 -572 9z"/>
</g>
</svg>
